<?xml version="1.0" encoding="UTF-8" standalone="no"?><!DOCTYPE svg PUBLIC "-//W3C//DTD SVG 1.1//EN" "http://www.w3.org/Graphics/SVG/1.1/DTD/svg11.dtd"><svg width="100%" height="100%" viewBox="0 0 2245 2245" version="1.1" xmlns="http://www.w3.org/2000/svg" xmlns:xlink="http://www.w3.org/1999/xlink" xml:space="preserve" xmlns:serif="http://www.serif.com/" style="fill-rule:evenodd;clip-rule:evenodd;stroke-miterlimit:10;"><rect id="Artboard1" x="0" y="0" width="2244" height="2244" style="fill:none;"/><clipPath id="_clip1"><rect x="0" y="0" width="2244" height="2244"/></clipPath><g clip-path="url(#_clip1)"><rect x="2007.79" y="0" width="236.211" height="118.105" style="fill:#020202;stroke:#191928;stroke-width:3px;"/><rect x="2007.79" y="118.105" width="236.211" height="236.211" style="fill:#cacaca;stroke:#191928;stroke-width:3px;"/><rect x="2007.79" y="354.316" width="236.211" height="236.211" style="fill:#aeaeae;stroke:#191928;stroke-width:3px;"/><rect x="2007.79" y="590.526" width="236.211" height="236.211" style="fill:#919191;stroke:#191928;stroke-width:3px;"/><rect x="2007.79" y="826.737" width="236.211" height="236.211" style="fill:#757575;stroke:#191928;stroke-width:3px;"/><rect x="2007.79" y="1062.95" width="236.211" height="236.211" style="fill:#595959;stroke:#191928;stroke-width:3px;"/><rect x="2007.79" y="1299.54" width="236.211" height="236.211" style="fill:#3d3d3d;stroke:#191928;stroke-width:3px;"/><rect x="2007.79" y="1535.75" width="236.211" height="236.211" style="fill:#212121;stroke:#191928;stroke-width:3px;"/><rect x="2007.79" y="1771.96" width="236.211" height="236.211" style="fill:#050505;stroke:#191928;stroke-width:3px;"/><rect x="2007.79" y="2007.79" width="236.211" height="236.211" style="stroke:#191928;stroke-width:3px;"/><clipPath id="_clip2"><rect x="0" y="0" width="2244" height="2244"/></clipPath><g clip-path="url(#_clip2)"><rect x="0" y="0" width="118.105" height="118.105" style="stroke:#191928;stroke-width:3px;"/></g><rect x="118.105" y="0" width="236.211" height="118.105" style="stroke:#191928;stroke-width:3px;"/><rect x="0" y="118.105" width="118.105" height="236.211" style="stroke:#191928;stroke-width:3px;"/><rect x="118.105" y="118.105" width="236.211" height="236.211" style="fill:#e3e3e3;stroke:#191928;stroke-width:3px;"/><rect x="0" y="354.316" width="118.105" height="236.211" style="stroke:#191928;stroke-width:3px;"/><rect x="118.105" y="354.316" width="236.211" height="236.211" style="fill:#e1e1e1;stroke:#191928;stroke-width:3px;"/><rect x="0" y="590.526" width="118.105" height="236.211" style="stroke:#191928;stroke-width:3px;"/><rect x="118.105" y="590.526" width="236.211" height="236.211" style="fill:#dedede;stroke:#191928;stroke-width:3px;"/><rect x="0" y="826.737" width="118.105" height="236.211" style="stroke:#191928;stroke-width:3px;"/><rect x="118.105" y="826.737" width="236.211" height="236.211" style="fill:#dcdcdc;stroke:#191928;stroke-width:3px;"/><rect x="0" y="1062.95" width="118.105" height="236.211" style="stroke:#191928;stroke-width:3px;"/><rect x="118.105" y="1062.95" width="236.211" height="236.211" style="fill:#d7d7d7;stroke:#191928;stroke-width:3px;"/><rect x="0" y="1299.16" width="118.105" height="236.211" style="stroke:#191928;stroke-width:3px;"/><rect x="118.105" y="1299.16" width="236.211" height="236.211" style="fill:#d4d4d4;stroke:#191928;stroke-width:3px;"/><rect x="0" y="1535.37" width="118.105" height="236.211" style="stroke:#191928;stroke-width:3px;"/><rect x="118.105" y="1535.37" width="236.211" height="236.211" style="fill:#d1d1d1;stroke:#191928;stroke-width:3px;"/><rect x="0" y="1771.58" width="118.105" height="236.211" style="stroke:#191928;stroke-width:3px;"/><rect x="118.105" y="1771.58" width="236.211" height="236.211" style="fill:#cfcfcf;stroke:#191928;stroke-width:3px;"/><rect x="0" y="2007.79" width="118.105" height="236.211" style="fill:#020202;stroke:#191928;stroke-width:3px;"/><rect x="118.105" y="2007.79" width="236.211" height="236.211" style="fill:#cacaca;stroke:#191928;stroke-width:3px;"/><rect x="354.316" y="0" width="236.211" height="118.105" style="stroke:#191928;stroke-width:3px;"/><rect x="354.316" y="118.105" width="236.211" height="236.211" style="fill:#e1e1e1;stroke:#191928;stroke-width:3px;"/><rect x="354.316" y="354.316" width="236.211" height="236.211" style="fill:#dcdcdc;stroke:#191928;stroke-width:3px;"/><rect x="354.316" y="590.526" width="236.211" height="236.211" style="fill:#d4d4d4;stroke:#191928;stroke-width:3px;"/><rect x="354.316" y="826.737" width="236.211" height="236.211" style="fill:#cfcfcf;stroke:#191928;stroke-width:3px;"/><rect x="354.316" y="1062.95" width="236.211" height="236.211" style="fill:#c7c7c7;stroke:#191928;stroke-width:3px;"/><rect x="354.316" y="1299.16" width="236.211" height="236.211" style="fill:#c2c2c2;stroke:#191928;stroke-width:3px;"/><rect x="354.316" y="1535.37" width="236.211" height="236.211" style="fill:#bababa;stroke:#191928;stroke-width:3px;"/><rect x="354.316" y="1771.58" width="236.211" height="236.211" style="fill:#b5b5b5;stroke:#191928;stroke-width:3px;"/><rect x="354.316" y="2007.79" width="236.211" height="236.211" style="fill:#aeaeae;stroke:#191928;stroke-width:3px;"/><rect x="590.526" y="0" width="236.211" height="118.105" style="stroke:#191928;stroke-width:3px;"/><rect x="590.526" y="118.105" width="236.211" height="236.211" style="fill:#dedede;stroke:#191928;stroke-width:3px;"/><rect x="590.526" y="354.316" width="236.211" height="236.211" style="fill:#d4d4d4;stroke:#191928;stroke-width:3px;"/><rect x="590.526" y="590.526" width="236.211" height="236.211" style="fill:#cacaca;stroke:#191928;stroke-width:3px;"/><rect x="590.526" y="826.737" width="236.211" height="236.211" style="fill:#c2c2c2;stroke:#191928;stroke-width:3px;"/><rect x="590.526" y="1062.95" width="236.211" height="236.211" style="fill:#b8b8b8;stroke:#191928;stroke-width:3px;"/><rect x="590.526" y="1299.16" width="236.211" height="236.211" style="fill:#aeaeae;stroke:#191928;stroke-width:3px;"/><rect x="590.526" y="1535.37" width="236.211" height="236.211" style="fill:#a6a6a6;stroke:#191928;stroke-width:3px;"/><rect x="590.526" y="1771.58" width="236.211" height="236.211" style="fill:#9c9c9c;stroke:#191928;stroke-width:3px;"/><rect x="590.526" y="2007.79" width="236.211" height="236.211" style="fill:#919191;stroke:#191928;stroke-width:3px;"/><rect x="826.737" y="0" width="236.211" height="118.105" style="stroke:#191928;stroke-width:3px;"/><rect x="826.737" y="118.105" width="236.211" height="236.211" style="fill:#dcdcdc;stroke:#191928;stroke-width:3px;"/><rect x="826.737" y="354.316" width="236.211" height="236.211" style="fill:#cfcfcf;stroke:#191928;stroke-width:3px;"/><rect x="826.737" y="590.526" width="236.211" height="236.211" style="fill:#c2c2c2;stroke:#191928;stroke-width:3px;"/><rect x="826.737" y="826.737" width="236.211" height="236.211" style="fill:#b5b5b5;stroke:#191928;stroke-width:3px;"/><rect x="826.737" y="1062.95" width="236.211" height="236.211" style="fill:#a8a8a8;stroke:#191928;stroke-width:3px;"/><rect x="826.737" y="1299.16" width="236.211" height="236.211" style="fill:#9c9c9c;stroke:#191928;stroke-width:3px;"/><rect x="826.737" y="1535.37" width="236.211" height="236.211" style="fill:#8f8f8f;stroke:#191928;stroke-width:3px;"/><rect x="826.737" y="1771.58" width="236.211" height="236.211" style="fill:#828282;stroke:#191928;stroke-width:3px;"/><rect x="826.737" y="2007.79" width="236.211" height="236.211" style="fill:#757575;stroke:#191928;stroke-width:3px;"/><rect x="1062.95" y="0" width="236.211" height="118.105" style="stroke:#191928;stroke-width:3px;"/><rect x="1062.95" y="118.105" width="236.211" height="236.211" style="fill:#d7d7d7;stroke:#191928;stroke-width:3px;"/><rect x="1062.95" y="354.316" width="236.211" height="236.211" style="fill:#c7c7c7;stroke:#191928;stroke-width:3px;"/><rect x="1062.95" y="590.526" width="236.211" height="236.211" style="fill:#b8b8b8;stroke:#191928;stroke-width:3px;"/><rect x="1062.95" y="826.737" width="236.211" height="236.211" style="fill:#a8a8a8;stroke:#191928;stroke-width:3px;"/><rect x="1062.95" y="1062.95" width="236.211" height="236.211" style="fill:#999;stroke:#191928;stroke-width:3px;"/><rect x="1062.95" y="1299.16" width="236.211" height="236.211" style="fill:#878787;stroke:#191928;stroke-width:3px;"/><rect x="1062.95" y="1535.37" width="236.211" height="236.211" style="fill:#787878;stroke:#191928;stroke-width:3px;"/><rect x="1062.95" y="1771.58" width="236.211" height="236.211" style="fill:#686868;stroke:#191928;stroke-width:3px;"/><rect x="1062.95" y="2007.79" width="236.211" height="236.211" style="fill:#595959;stroke:#191928;stroke-width:3px;"/><rect x="1299.16" y="0" width="236.211" height="118.105" style="stroke:#191928;stroke-width:3px;"/><rect x="1299.16" y="118.105" width="236.211" height="236.211" style="fill:#d4d4d4;stroke:#191928;stroke-width:3px;"/><rect x="1299.16" y="354.316" width="236.211" height="236.211" style="fill:#c2c2c2;stroke:#191928;stroke-width:3px;"/><rect x="1299.16" y="590.526" width="236.211" height="236.211" style="fill:#aeaeae;stroke:#191928;stroke-width:3px;"/><rect x="1299.16" y="826.737" width="236.211" height="236.211" style="fill:#9c9c9c;stroke:#191928;stroke-width:3px;"/><rect x="1299.16" y="1062.95" width="236.211" height="236.211" style="fill:#878787;stroke:#191928;stroke-width:3px;"/><rect x="1299.16" y="1299.16" width="236.211" height="236.211" style="fill:#757575;stroke:#191928;stroke-width:3px;"/><rect x="1299.16" y="1535.37" width="236.211" height="236.211" style="fill:#636363;stroke:#191928;stroke-width:3px;"/><rect x="1299.16" y="1771.58" width="236.211" height="236.211" style="fill:#4f4f4f;stroke:#191928;stroke-width:3px;"/><rect x="1299.16" y="2007.79" width="236.211" height="236.211" style="fill:#3d3d3d;stroke:#191928;stroke-width:3px;"/><rect x="1535.37" y="0" width="236.211" height="118.105" style="stroke:#191928;stroke-width:3px;"/><rect x="1535.37" y="118.105" width="236.211" height="236.211" style="fill:#d1d1d1;stroke:#191928;stroke-width:3px;"/><rect x="1535.37" y="354.316" width="236.211" height="236.211" style="fill:#bababa;stroke:#191928;stroke-width:3px;"/><rect x="1535.37" y="590.526" width="236.211" height="236.211" style="fill:#a6a6a6;stroke:#191928;stroke-width:3px;"/><rect x="1535.37" y="826.737" width="236.211" height="236.211" style="fill:#8f8f8f;stroke:#191928;stroke-width:3px;"/><rect x="1535.37" y="1062.95" width="236.211" height="236.211" style="fill:#787878;stroke:#191928;stroke-width:3px;"/><rect x="1535.37" y="1299.16" width="236.211" height="236.211" style="fill:#636363;stroke:#191928;stroke-width:3px;"/><rect x="1535.37" y="1535.37" width="236.211" height="236.211" style="fill:#4c4c4c;stroke:#191928;stroke-width:3px;"/><rect x="1535.37" y="1771.58" width="236.211" height="236.211" style="fill:#353535;stroke:#191928;stroke-width:3px;"/><rect x="1535.37" y="2007.79" width="236.211" height="236.211" style="fill:#212121;stroke:#191928;stroke-width:3px;"/><rect x="1771.58" y="0" width="236.211" height="118.105" style="stroke:#191928;stroke-width:3px;"/><rect x="1771.58" y="118.105" width="236.211" height="236.211" style="fill:#cfcfcf;stroke:#191928;stroke-width:3px;"/><rect x="1771.58" y="354.316" width="236.211" height="236.211" style="fill:#b5b5b5;stroke:#191928;stroke-width:3px;"/><rect x="1771.58" y="590.526" width="236.211" height="236.211" style="fill:#9c9c9c;stroke:#191928;stroke-width:3px;"/><rect x="1771.58" y="826.737" width="236.211" height="236.211" style="fill:#828282;stroke:#191928;stroke-width:3px;"/><rect x="1771.58" y="1062.95" width="236.211" height="236.211" style="fill:#686868;stroke:#191928;stroke-width:3px;"/><rect x="1771.58" y="1299.16" width="236.211" height="236.211" style="fill:#4f4f4f;stroke:#191928;stroke-width:3px;"/><rect x="1771.58" y="1535.37" width="236.211" height="236.211" style="fill:#353535;stroke:#191928;stroke-width:3px;"/><rect x="1771.58" y="1771.58" width="236.211" height="236.211" style="fill:#1c1c1c;stroke:#191928;stroke-width:3px;"/><rect x="1771.58" y="2007.79" width="236.211" height="236.211" style="fill:#050505;stroke:#191928;stroke-width:3px;"/><text x="45.319px" y="72.658px" style="font-family:'Arial-BoldMT', 'Arial', sans-serif;font-weight:700;font-size:54px;fill:#fff;">X</text><text x="221.203px" y="73.031px" style="font-family:'Arial-BoldMT', 'Arial', sans-serif;font-weight:700;font-size:54px;fill:#fff;">1</text><text x="44.047px" y="250.188px" style="font-family:'Arial-BoldMT', 'Arial', sans-serif;font-weight:700;font-size:54px;fill:#fff;">1</text><text x="221.203px" y="250.188px" style="font-family:'Arial-BoldMT', 'Arial', sans-serif;font-weight:700;font-size:54px;fill:#fff;">1</text><text x="44.047px" y="486.406px" style="font-family:'Arial-BoldMT', 'Arial', sans-serif;font-weight:700;font-size:54px;fill:#fff;">2</text><text x="221.203px" y="486.406px" style="font-family:'Arial-BoldMT', 'Arial', sans-serif;font-weight:700;font-size:54px;fill:#fff;">2</text><text x="44.047px" y="722.609px" style="font-family:'Arial-BoldMT', 'Arial', sans-serif;font-weight:700;font-size:54px;fill:#fff;">3</text><text x="221.203px" y="722.609px" style="font-family:'Arial-BoldMT', 'Arial', sans-serif;font-weight:700;font-size:54px;fill:#fff;">3</text><text x="44.047px" y="958.828px" style="font-family:'Arial-BoldMT', 'Arial', sans-serif;font-weight:700;font-size:54px;fill:#fff;">4</text><text x="221.203px" y="958.828px" style="font-family:'Arial-BoldMT', 'Arial', sans-serif;font-weight:700;font-size:54px;fill:#fff;">4</text><text x="44.047px" y="1195.03px" style="font-family:'Arial-BoldMT', 'Arial', sans-serif;font-weight:700;font-size:54px;fill:#fff;">5</text><text x="221.203px" y="1195.03px" style="font-family:'Arial-BoldMT', 'Arial', sans-serif;font-weight:700;font-size:54px;fill:#fff;">5</text><text x="44.047px" y="1431.25px" style="font-family:'Arial-BoldMT', 'Arial', sans-serif;font-weight:700;font-size:54px;fill:#fff;">6</text><text x="221.203px" y="1431.25px" style="font-family:'Arial-BoldMT', 'Arial', sans-serif;font-weight:700;font-size:54px;fill:#fff;">6</text><text x="44.047px" y="1667.45px" style="font-family:'Arial-BoldMT', 'Arial', sans-serif;font-weight:700;font-size:54px;fill:#fff;">7</text><text x="221.203px" y="1667.45px" style="font-family:'Arial-BoldMT', 'Arial', sans-serif;font-weight:700;font-size:54px;fill:#fff;">7</text><text x="44.047px" y="1903.67px" style="font-family:'Arial-BoldMT', 'Arial', sans-serif;font-weight:700;font-size:54px;fill:#fff;">8</text><text x="221.203px" y="1903.67px" style="font-family:'Arial-BoldMT', 'Arial', sans-serif;font-weight:700;font-size:54px;fill:#fff;">8</text><text x="44.047px" y="2139.88px" style="font-family:'Arial-BoldMT', 'Arial', sans-serif;font-weight:700;font-size:54px;fill:#fff;">9</text><text x="221.203px" y="2139.88px" style="font-family:'Arial-BoldMT', 'Arial', sans-serif;font-weight:700;font-size:54px;fill:#fff;">9</text><g transform="matrix(4.16667,0,0,4.16667,-150,-480)"><text x="145.778px" y="132.728px" style="font-family:'Arial-BoldMT', 'Arial', sans-serif;font-weight:700;font-size:12.96px;fill:#fff;">2</text><text x="145.778px" y="175.248px" style="font-family:'Arial-BoldMT', 'Arial', sans-serif;font-weight:700;font-size:12.96px;fill:#fff;">2</text><text x="145.778px" y="231.938px" style="font-family:'Arial-BoldMT', 'Arial', sans-serif;font-weight:700;font-size:12.96px;fill:#fff;">4</text><text x="145.778px" y="288.628px" style="font-family:'Arial-BoldMT', 'Arial', sans-serif;font-weight:700;font-size:12.96px;fill:#fff;">6</text><text x="145.778px" y="345.318px" style="font-family:'Arial-BoldMT', 'Arial', sans-serif;font-weight:700;font-size:12.96px;fill:#fff;">8</text></g><g transform="matrix(4.16667,0,0,4.16667,-150,-480)"><text x="142.178px" y="402.008px" style="font-family:'Arial-BoldMT', 'Arial', sans-serif;font-weight:700;font-size:12.96px;fill:#fff;">10</text><text x="142.178px" y="458.698px" style="font-family:'Arial-BoldMT', 'Arial', sans-serif;font-weight:700;font-size:12.96px;fill:#fff;">12</text><text x="142.178px" y="515.388px" style="font-family:'Arial-BoldMT', 'Arial', sans-serif;font-weight:700;font-size:12.96px;fill:#fff;">14</text><text x="142.178px" y="572.078px" style="font-family:'Arial-BoldMT', 'Arial', sans-serif;font-weight:700;font-size:12.96px;fill:#fff;">16</text><text x="142.178px" y="628.768px" style="font-family:'Arial-BoldMT', 'Arial', sans-serif;font-weight:700;font-size:12.96px;fill:#fff;">18</text></g><g transform="matrix(4.16667,0,0,4.16667,-150,-480)"><text x="202.47px" y="132.728px" style="font-family:'Arial-BoldMT', 'Arial', sans-serif;font-weight:700;font-size:12.96px;fill:#fff;">3</text><text x="202.47px" y="175.248px" style="font-family:'Arial-BoldMT', 'Arial', sans-serif;font-weight:700;font-size:12.96px;fill:#fff;">3</text><text x="202.47px" y="231.938px" style="font-family:'Arial-BoldMT', 'Arial', sans-serif;font-weight:700;font-size:12.96px;fill:#fff;">6</text><text x="202.47px" y="288.628px" style="font-family:'Arial-BoldMT', 'Arial', sans-serif;font-weight:700;font-size:12.96px;fill:#fff;">9</text></g><g transform="matrix(4.16667,0,0,4.16667,-150,-480)"><text x="198.87px" y="345.319px" style="font-family:'Arial-BoldMT', 'Arial', sans-serif;font-weight:700;font-size:12.96px;fill:#fff;">12</text><text x="198.87px" y="402.009px" style="font-family:'Arial-BoldMT', 'Arial', sans-serif;font-weight:700;font-size:12.96px;fill:#fff;">15</text><text x="198.87px" y="458.699px" style="font-family:'Arial-BoldMT', 'Arial', sans-serif;font-weight:700;font-size:12.96px;fill:#fff;">18</text><text x="198.87px" y="515.389px" style="font-family:'Arial-BoldMT', 'Arial', sans-serif;font-weight:700;font-size:12.96px;fill:#fff;">21</text><text x="198.87px" y="572.079px" style="font-family:'Arial-BoldMT', 'Arial', sans-serif;font-weight:700;font-size:12.96px;fill:#fff;">24</text><text x="198.87px" y="628.769px" style="font-family:'Arial-BoldMT', 'Arial', sans-serif;font-weight:700;font-size:12.96px;fill:#fff;">27</text></g><g transform="matrix(4.16667,0,0,4.16667,-150,-480)"><text x="259.159px" y="132.728px" style="font-family:'Arial-BoldMT', 'Arial', sans-serif;font-weight:700;font-size:12.96px;fill:#fff;">4</text><text x="259.159px" y="175.248px" style="font-family:'Arial-BoldMT', 'Arial', sans-serif;font-weight:700;font-size:12.96px;fill:#fff;">4</text><text x="259.159px" y="231.938px" style="font-family:'Arial-BoldMT', 'Arial', sans-serif;font-weight:700;font-size:12.96px;fill:#fff;">8</text></g><g transform="matrix(4.16667,0,0,4.16667,-150,-480)"><text x="255.559px" y="288.626px" style="font-family:'Arial-BoldMT', 'Arial', sans-serif;font-weight:700;font-size:12.96px;fill:#fff;">12</text><text x="255.559px" y="345.316px" style="font-family:'Arial-BoldMT', 'Arial', sans-serif;font-weight:700;font-size:12.96px;fill:#fff;">16</text><text x="255.559px" y="402.006px" style="font-family:'Arial-BoldMT', 'Arial', sans-serif;font-weight:700;font-size:12.96px;fill:#fff;">20</text><text x="255.559px" y="458.696px" style="font-family:'Arial-BoldMT', 'Arial', sans-serif;font-weight:700;font-size:12.96px;fill:#fff;">24</text><text x="255.559px" y="515.386px" style="font-family:'Arial-BoldMT', 'Arial', sans-serif;font-weight:700;font-size:12.96px;fill:#fff;">28</text><text x="255.559px" y="572.076px" style="font-family:'Arial-BoldMT', 'Arial', sans-serif;font-weight:700;font-size:12.96px;fill:#fff;">32</text><text x="255.559px" y="628.766px" style="font-family:'Arial-BoldMT', 'Arial', sans-serif;font-weight:700;font-size:12.96px;fill:#fff;">36</text></g><g transform="matrix(4.16667,0,0,4.16667,-150,-480)"><text x="315.851px" y="132.728px" style="font-family:'Arial-BoldMT', 'Arial', sans-serif;font-weight:700;font-size:12.96px;fill:#fff;">5</text><text x="315.851px" y="175.248px" style="font-family:'Arial-BoldMT', 'Arial', sans-serif;font-weight:700;font-size:12.96px;fill:#fff;">5</text></g><g transform="matrix(4.16667,0,0,4.16667,-150,-480)"><text x="312.251px" y="231.938px" style="font-family:'Arial-BoldMT', 'Arial', sans-serif;font-weight:700;font-size:12.96px;fill:#fff;">10</text><text x="312.251px" y="288.628px" style="font-family:'Arial-BoldMT', 'Arial', sans-serif;font-weight:700;font-size:12.96px;fill:#fff;">15</text><text x="312.251px" y="345.318px" style="font-family:'Arial-BoldMT', 'Arial', sans-serif;font-weight:700;font-size:12.96px;fill:#fff;">20</text><text x="312.251px" y="402.008px" style="font-family:'Arial-BoldMT', 'Arial', sans-serif;font-weight:700;font-size:12.96px;fill:#fff;">25</text><text x="312.251px" y="458.698px" style="font-family:'Arial-BoldMT', 'Arial', sans-serif;font-weight:700;font-size:12.96px;fill:#fff;">30</text><text x="312.251px" y="515.388px" style="font-family:'Arial-BoldMT', 'Arial', sans-serif;font-weight:700;font-size:12.96px;fill:#fff;">35</text><text x="312.251px" y="572.078px" style="font-family:'Arial-BoldMT', 'Arial', sans-serif;font-weight:700;font-size:12.96px;fill:#fff;">40</text><text x="312.251px" y="628.768px" style="font-family:'Arial-BoldMT', 'Arial', sans-serif;font-weight:700;font-size:12.96px;fill:#fff;">45</text></g><g transform="matrix(4.16667,0,0,4.16667,-150,-480)"><text x="372.54px" y="132.728px" style="font-family:'Arial-BoldMT', 'Arial', sans-serif;font-weight:700;font-size:12.96px;fill:#fff;">6</text><text x="372.54px" y="175.248px" style="font-family:'Arial-BoldMT', 'Arial', sans-serif;font-weight:700;font-size:12.96px;fill:#fff;">6</text></g><g transform="matrix(4.16667,0,0,4.16667,-150,-480)"><text x="368.94px" y="231.938px" style="font-family:'Arial-BoldMT', 'Arial', sans-serif;font-weight:700;font-size:12.96px;fill:#fff;">12</text><text x="368.94px" y="288.628px" style="font-family:'Arial-BoldMT', 'Arial', sans-serif;font-weight:700;font-size:12.96px;fill:#fff;">18</text><text x="368.94px" y="345.318px" style="font-family:'Arial-BoldMT', 'Arial', sans-serif;font-weight:700;font-size:12.96px;fill:#fff;">24</text><text x="368.94px" y="402.008px" style="font-family:'Arial-BoldMT', 'Arial', sans-serif;font-weight:700;font-size:12.96px;fill:#fff;">30</text><text x="368.94px" y="458.698px" style="font-family:'Arial-BoldMT', 'Arial', sans-serif;font-weight:700;font-size:12.96px;fill:#fff;">36</text><text x="368.94px" y="515.388px" style="font-family:'Arial-BoldMT', 'Arial', sans-serif;font-weight:700;font-size:12.96px;fill:#fff;">42</text><text x="368.94px" y="572.078px" style="font-family:'Arial-BoldMT', 'Arial', sans-serif;font-weight:700;font-size:12.96px;fill:#fff;">48</text><text x="368.94px" y="628.768px" style="font-family:'Arial-BoldMT', 'Arial', sans-serif;font-weight:700;font-size:12.96px;fill:#fff;">54</text></g><g transform="matrix(4.16667,0,0,4.16667,-150,-480)"><text x="429.233px" y="132.728px" style="font-family:'Arial-BoldMT', 'Arial', sans-serif;font-weight:700;font-size:12.96px;fill:#fff;">7</text><text x="429.233px" y="175.248px" style="font-family:'Arial-BoldMT', 'Arial', sans-serif;font-weight:700;font-size:12.96px;fill:#fff;">7</text></g><g transform="matrix(4.16667,0,0,4.16667,-150,-480)"><text x="425.633px" y="231.938px" style="font-family:'Arial-BoldMT', 'Arial', sans-serif;font-weight:700;font-size:12.96px;fill:#fff;">14</text><text x="425.633px" y="288.628px" style="font-family:'Arial-BoldMT', 'Arial', sans-serif;font-weight:700;font-size:12.96px;fill:#fff;">21</text><text x="425.633px" y="345.318px" style="font-family:'Arial-BoldMT', 'Arial', sans-serif;font-weight:700;font-size:12.96px;fill:#fff;">28</text><text x="425.633px" y="402.008px" style="font-family:'Arial-BoldMT', 'Arial', sans-serif;font-weight:700;font-size:12.96px;fill:#fff;">35</text><text x="425.633px" y="458.698px" style="font-family:'Arial-BoldMT', 'Arial', sans-serif;font-weight:700;font-size:12.96px;fill:#fff;">42</text><text x="425.633px" y="515.388px" style="font-family:'Arial-BoldMT', 'Arial', sans-serif;font-weight:700;font-size:12.96px;fill:#fff;">49</text><text x="425.633px" y="572.078px" style="font-family:'Arial-BoldMT', 'Arial', sans-serif;font-weight:700;font-size:12.96px;fill:#fff;">56</text><text x="425.633px" y="628.768px" style="font-family:'Arial-BoldMT', 'Arial', sans-serif;font-weight:700;font-size:12.96px;fill:#fff;">63</text></g><g transform="matrix(4.16667,0,0,4.16667,-150,-480)"><text x="485.921px" y="132.728px" style="font-family:'Arial-BoldMT', 'Arial', sans-serif;font-weight:700;font-size:12.96px;fill:#fff;">8</text><text x="485.921px" y="175.248px" style="font-family:'Arial-BoldMT', 'Arial', sans-serif;font-weight:700;font-size:12.96px;fill:#fff;">8</text></g><g transform="matrix(4.16667,0,0,4.16667,-150,-480)"><text x="482.321px" y="231.938px" style="font-family:'Arial-BoldMT', 'Arial', sans-serif;font-weight:700;font-size:12.96px;fill:#fff;">16</text><text x="482.321px" y="288.628px" style="font-family:'Arial-BoldMT', 'Arial', sans-serif;font-weight:700;font-size:12.96px;fill:#fff;">24</text><text x="482.321px" y="345.318px" style="font-family:'Arial-BoldMT', 'Arial', sans-serif;font-weight:700;font-size:12.96px;fill:#fff;">32</text><text x="482.321px" y="402.008px" style="font-family:'Arial-BoldMT', 'Arial', sans-serif;font-weight:700;font-size:12.96px;fill:#fff;">40</text><text x="482.321px" y="458.698px" style="font-family:'Arial-BoldMT', 'Arial', sans-serif;font-weight:700;font-size:12.96px;fill:#fff;">48</text><text x="482.321px" y="515.388px" style="font-family:'Arial-BoldMT', 'Arial', sans-serif;font-weight:700;font-size:12.96px;fill:#fff;">56</text><text x="482.321px" y="572.078px" style="font-family:'Arial-BoldMT', 'Arial', sans-serif;font-weight:700;font-size:12.96px;fill:#fff;">64</text><text x="482.321px" y="628.768px" style="font-family:'Arial-BoldMT', 'Arial', sans-serif;font-weight:700;font-size:12.96px;fill:#fff;">72</text></g><g transform="matrix(4.16667,0,0,4.16667,-150,-480)"><text x="542.614px" y="132.728px" style="font-family:'Arial-BoldMT', 'Arial', sans-serif;font-weight:700;font-size:12.96px;fill:#fff;">9</text><text x="542.614px" y="175.248px" style="font-family:'Arial-BoldMT', 'Arial', sans-serif;font-weight:700;font-size:12.96px;fill:#fff;">9</text></g><g transform="matrix(4.16667,0,0,4.16667,-150,-480)"><text x="539.014px" y="231.938px" style="font-family:'Arial-BoldMT', 'Arial', sans-serif;font-weight:700;font-size:12.96px;fill:#fff;">18</text><text x="539.014px" y="288.628px" style="font-family:'Arial-BoldMT', 'Arial', sans-serif;font-weight:700;font-size:12.96px;fill:#fff;">27</text><text x="539.014px" y="345.318px" style="font-family:'Arial-BoldMT', 'Arial', sans-serif;font-weight:700;font-size:12.96px;fill:#fff;">36</text><text x="539.014px" y="402.008px" style="font-family:'Arial-BoldMT', 'Arial', sans-serif;font-weight:700;font-size:12.96px;fill:#fff;">45</text><text x="539.014px" y="458.698px" style="font-family:'Arial-BoldMT', 'Arial', sans-serif;font-weight:700;font-size:12.96px;fill:#fff;">54</text><text x="539.014px" y="515.388px" style="font-family:'Arial-BoldMT', 'Arial', sans-serif;font-weight:700;font-size:12.96px;fill:#fff;">63</text><text x="539.014px" y="572.078px" style="font-family:'Arial-BoldMT', 'Arial', sans-serif;font-weight:700;font-size:12.96px;fill:#fff;">72</text><text x="539.014px" y="628.768px" style="font-family:'Arial-BoldMT', 'Arial', sans-serif;font-weight:700;font-size:12.96px;fill:#fff;">81</text></g></g></svg>