<?xml version="1.0" encoding="UTF-8" standalone="no"?>
<!DOCTYPE svg PUBLIC "-//W3C//DTD SVG 1.1//EN" "http://www.w3.org/Graphics/SVG/1.1/DTD/svg11.dtd">
<svg width="100%" height="100%" viewBox="0 0 2245 2245" version="1.1" xmlns="http://www.w3.org/2000/svg" xmlns:xlink="http://www.w3.org/1999/xlink" xml:space="preserve" xmlns:serif="http://www.serif.com/" style="fill-rule:evenodd;clip-rule:evenodd;stroke-linecap:round;stroke-linejoin:round;stroke-miterlimit:1.5;">
    <g id="Artboard1" transform="matrix(1,0,0,1,-2677.17,-480)">
        <rect x="2677.17" y="480" width="2244" height="2244" style="fill:none;"/>
        <clipPath id="_clip1">
            <rect x="2677.17" y="480" width="2244" height="2244"/>
        </clipPath>
        <g clip-path="url(#_clip1)">
            <g transform="matrix(1,0,0,1,2677.17,480)">
                <rect x="0" y="0" width="2244" height="2244"/>
            </g>
            <g transform="matrix(4.16667,0,0,4.16667,2531.57,28.9658)">
                <text x="45.851px" y="132.728px" style="font-family:'Arial-BoldMT', 'Arial', sans-serif;font-weight:700;font-size:12.96px;fill:white;">X</text>
            </g>
            <g transform="matrix(4.16667,0,0,4.16667,2527.3,29.3389)">
                <text x="89.089px" y="132.728px" style="font-family:'Arial-BoldMT', 'Arial', sans-serif;font-weight:700;font-size:12.96px;fill:white;">1</text>
            </g>
            <g transform="matrix(4.16667,0,0,4.16667,2527.3,29.3389)">
                <text x="46.571px" y="175.245px" style="font-family:'Arial-BoldMT', 'Arial', sans-serif;font-weight:700;font-size:12.96px;fill:white;">1</text>
            </g>
            <g transform="matrix(4.16667,0,0,4.16667,2527.3,29.3389)">
                <text x="89.089px" y="175.245px" style="font-family:'Arial-BoldMT', 'Arial', sans-serif;font-weight:700;font-size:12.96px;fill:white;">1</text>
            </g>
            <g transform="matrix(4.16667,0,0,4.16667,2527.3,29.3389)">
                <text x="46.571px" y="231.938px" style="font-family:'Arial-BoldMT', 'Arial', sans-serif;font-weight:700;font-size:12.96px;fill:white;">2</text>
            </g>
            <g transform="matrix(4.16667,0,0,4.16667,2527.3,29.3389)">
                <text x="89.089px" y="231.938px" style="font-family:'Arial-BoldMT', 'Arial', sans-serif;font-weight:700;font-size:12.96px;fill:white;">2</text>
            </g>
            <g transform="matrix(4.16667,0,0,4.16667,2527.3,29.3389)">
                <text x="46.571px" y="288.626px" style="font-family:'Arial-BoldMT', 'Arial', sans-serif;font-weight:700;font-size:12.96px;fill:white;">3</text>
            </g>
            <g transform="matrix(4.16667,0,0,4.16667,2527.3,29.3389)">
                <text x="89.089px" y="288.626px" style="font-family:'Arial-BoldMT', 'Arial', sans-serif;font-weight:700;font-size:12.96px;fill:white;">3</text>
            </g>
            <g transform="matrix(4.16667,0,0,4.16667,2527.3,29.3389)">
                <text x="46.571px" y="345.319px" style="font-family:'Arial-BoldMT', 'Arial', sans-serif;font-weight:700;font-size:12.96px;fill:white;">4</text>
            </g>
            <g transform="matrix(4.16667,0,0,4.16667,2527.3,29.3389)">
                <text x="89.089px" y="345.319px" style="font-family:'Arial-BoldMT', 'Arial', sans-serif;font-weight:700;font-size:12.96px;fill:white;">4</text>
            </g>
            <g transform="matrix(4.16667,0,0,4.16667,2527.3,29.3389)">
                <text x="46.571px" y="402.008px" style="font-family:'Arial-BoldMT', 'Arial', sans-serif;font-weight:700;font-size:12.96px;fill:white;">5</text>
            </g>
            <g transform="matrix(4.16667,0,0,4.16667,2527.3,29.3389)">
                <text x="89.089px" y="402.008px" style="font-family:'Arial-BoldMT', 'Arial', sans-serif;font-weight:700;font-size:12.96px;fill:white;">5</text>
            </g>
            <g transform="matrix(4.16667,0,0,4.16667,2527.3,29.3389)">
                <text x="46.571px" y="458.7px" style="font-family:'Arial-BoldMT', 'Arial', sans-serif;font-weight:700;font-size:12.96px;fill:white;">6</text>
            </g>
            <g transform="matrix(4.16667,0,0,4.16667,2527.3,29.3389)">
                <text x="89.089px" y="458.7px" style="font-family:'Arial-BoldMT', 'Arial', sans-serif;font-weight:700;font-size:12.96px;fill:white;">6</text>
            </g>
            <g transform="matrix(4.16667,0,0,4.16667,2527.3,29.3389)">
                <text x="46.571px" y="515.389px" style="font-family:'Arial-BoldMT', 'Arial', sans-serif;font-weight:700;font-size:12.96px;fill:white;">7</text>
            </g>
            <g transform="matrix(4.16667,0,0,4.16667,2527.3,29.3389)">
                <text x="89.089px" y="515.389px" style="font-family:'Arial-BoldMT', 'Arial', sans-serif;font-weight:700;font-size:12.96px;fill:white;">7</text>
            </g>
            <g transform="matrix(4.16667,0,0,4.16667,2527.3,29.3389)">
                <text x="46.571px" y="572.081px" style="font-family:'Arial-BoldMT', 'Arial', sans-serif;font-weight:700;font-size:12.96px;fill:white;">8</text>
            </g>
            <g transform="matrix(4.16667,0,0,4.16667,2527.3,29.3389)">
                <text x="89.089px" y="572.081px" style="font-family:'Arial-BoldMT', 'Arial', sans-serif;font-weight:700;font-size:12.96px;fill:white;">8</text>
            </g>
            <g transform="matrix(4.16667,0,0,4.16667,2527.3,29.3389)">
                <text x="46.571px" y="628.77px" style="font-family:'Arial-BoldMT', 'Arial', sans-serif;font-weight:700;font-size:12.96px;fill:white;">9</text>
            </g>
            <g transform="matrix(4.16667,0,0,4.16667,2527.3,29.3389)">
                <text x="89.089px" y="628.77px" style="font-family:'Arial-BoldMT', 'Arial', sans-serif;font-weight:700;font-size:12.96px;fill:white;">9</text>
            </g>
            <g transform="matrix(4.16667,0,0,4.16667,2527.3,29.3389)">
                <text x="145.778px" y="132.728px" style="font-family:'Arial-BoldMT', 'Arial', sans-serif;font-weight:700;font-size:12.96px;fill:white;">2</text>
                <text x="145.778px" y="175.248px" style="font-family:'Arial-BoldMT', 'Arial', sans-serif;font-weight:700;font-size:12.96px;fill:white;">2</text>
                <text x="145.778px" y="231.938px" style="font-family:'Arial-BoldMT', 'Arial', sans-serif;font-weight:700;font-size:12.96px;fill:white;">4</text>
                <text x="145.778px" y="288.628px" style="font-family:'Arial-BoldMT', 'Arial', sans-serif;font-weight:700;font-size:12.96px;fill:white;">6</text>
                <text x="145.778px" y="345.318px" style="font-family:'Arial-BoldMT', 'Arial', sans-serif;font-weight:700;font-size:12.96px;fill:white;">8</text>
            </g>
            <g transform="matrix(4.16667,0,0,4.16667,2527.3,29.3389)">
                <text x="142.178px" y="402.008px" style="font-family:'Arial-BoldMT', 'Arial', sans-serif;font-weight:700;font-size:12.96px;fill:white;">10</text>
                <text x="142.178px" y="458.698px" style="font-family:'Arial-BoldMT', 'Arial', sans-serif;font-weight:700;font-size:12.96px;fill:white;">12</text>
                <text x="142.178px" y="515.388px" style="font-family:'Arial-BoldMT', 'Arial', sans-serif;font-weight:700;font-size:12.96px;fill:white;">14</text>
                <text x="142.178px" y="572.078px" style="font-family:'Arial-BoldMT', 'Arial', sans-serif;font-weight:700;font-size:12.96px;fill:white;">16</text>
                <text x="142.178px" y="628.768px" style="font-family:'Arial-BoldMT', 'Arial', sans-serif;font-weight:700;font-size:12.96px;fill:white;">18</text>
            </g>
            <g transform="matrix(4.16667,0,0,4.16667,2527.3,29.3389)">
                <text x="202.47px" y="132.728px" style="font-family:'Arial-BoldMT', 'Arial', sans-serif;font-weight:700;font-size:12.96px;fill:white;">3</text>
                <text x="202.47px" y="175.248px" style="font-family:'Arial-BoldMT', 'Arial', sans-serif;font-weight:700;font-size:12.96px;fill:white;">3</text>
                <text x="202.47px" y="231.938px" style="font-family:'Arial-BoldMT', 'Arial', sans-serif;font-weight:700;font-size:12.96px;fill:white;">6</text>
                <text x="202.47px" y="288.628px" style="font-family:'Arial-BoldMT', 'Arial', sans-serif;font-weight:700;font-size:12.96px;fill:white;">9</text>
            </g>
            <g transform="matrix(4.16667,0,0,4.16667,2527.3,29.3389)">
                <text x="198.87px" y="345.319px" style="font-family:'Arial-BoldMT', 'Arial', sans-serif;font-weight:700;font-size:12.96px;fill:white;">12</text>
                <text x="198.87px" y="402.009px" style="font-family:'Arial-BoldMT', 'Arial', sans-serif;font-weight:700;font-size:12.96px;fill:white;">15</text>
                <text x="198.87px" y="458.699px" style="font-family:'Arial-BoldMT', 'Arial', sans-serif;font-weight:700;font-size:12.96px;fill:white;">18</text>
                <text x="198.87px" y="515.389px" style="font-family:'Arial-BoldMT', 'Arial', sans-serif;font-weight:700;font-size:12.96px;fill:white;">21</text>
                <text x="198.87px" y="572.079px" style="font-family:'Arial-BoldMT', 'Arial', sans-serif;font-weight:700;font-size:12.96px;fill:white;">24</text>
                <text x="198.87px" y="628.769px" style="font-family:'Arial-BoldMT', 'Arial', sans-serif;font-weight:700;font-size:12.96px;fill:white;">27</text>
            </g>
            <g transform="matrix(4.16667,0,0,4.16667,2527.3,29.3389)">
                <text x="259.159px" y="132.728px" style="font-family:'Arial-BoldMT', 'Arial', sans-serif;font-weight:700;font-size:12.96px;fill:white;">4</text>
                <text x="259.159px" y="175.248px" style="font-family:'Arial-BoldMT', 'Arial', sans-serif;font-weight:700;font-size:12.96px;fill:white;">4</text>
                <text x="259.159px" y="231.938px" style="font-family:'Arial-BoldMT', 'Arial', sans-serif;font-weight:700;font-size:12.96px;fill:white;">8</text>
            </g>
            <g transform="matrix(4.16667,0,0,4.16667,2527.3,29.3389)">
                <text x="255.559px" y="288.626px" style="font-family:'Arial-BoldMT', 'Arial', sans-serif;font-weight:700;font-size:12.96px;fill:white;">12</text>
                <text x="255.559px" y="345.316px" style="font-family:'Arial-BoldMT', 'Arial', sans-serif;font-weight:700;font-size:12.96px;fill:white;">16</text>
                <text x="255.559px" y="402.006px" style="font-family:'Arial-BoldMT', 'Arial', sans-serif;font-weight:700;font-size:12.96px;fill:white;">20</text>
                <text x="255.559px" y="458.696px" style="font-family:'Arial-BoldMT', 'Arial', sans-serif;font-weight:700;font-size:12.96px;fill:white;">24</text>
                <text x="255.559px" y="515.386px" style="font-family:'Arial-BoldMT', 'Arial', sans-serif;font-weight:700;font-size:12.96px;fill:white;">28</text>
                <text x="255.559px" y="572.076px" style="font-family:'Arial-BoldMT', 'Arial', sans-serif;font-weight:700;font-size:12.96px;fill:white;">32</text>
                <text x="255.559px" y="628.766px" style="font-family:'Arial-BoldMT', 'Arial', sans-serif;font-weight:700;font-size:12.96px;fill:white;">36</text>
            </g>
            <g transform="matrix(4.16667,0,0,4.16667,2527.3,29.3389)">
                <text x="315.851px" y="132.728px" style="font-family:'Arial-BoldMT', 'Arial', sans-serif;font-weight:700;font-size:12.96px;fill:white;">5</text>
                <text x="315.851px" y="175.248px" style="font-family:'Arial-BoldMT', 'Arial', sans-serif;font-weight:700;font-size:12.96px;fill:white;">5</text>
            </g>
            <g transform="matrix(4.16667,0,0,4.16667,2527.3,29.3389)">
                <text x="312.251px" y="231.938px" style="font-family:'Arial-BoldMT', 'Arial', sans-serif;font-weight:700;font-size:12.96px;fill:white;">10</text>
                <text x="312.251px" y="288.628px" style="font-family:'Arial-BoldMT', 'Arial', sans-serif;font-weight:700;font-size:12.96px;fill:white;">15</text>
                <text x="312.251px" y="345.318px" style="font-family:'Arial-BoldMT', 'Arial', sans-serif;font-weight:700;font-size:12.96px;fill:white;">20</text>
                <text x="312.251px" y="402.008px" style="font-family:'Arial-BoldMT', 'Arial', sans-serif;font-weight:700;font-size:12.96px;fill:white;">25</text>
                <text x="312.251px" y="458.698px" style="font-family:'Arial-BoldMT', 'Arial', sans-serif;font-weight:700;font-size:12.96px;fill:white;">30</text>
                <text x="312.251px" y="515.388px" style="font-family:'Arial-BoldMT', 'Arial', sans-serif;font-weight:700;font-size:12.96px;fill:white;">35</text>
                <text x="312.251px" y="572.078px" style="font-family:'Arial-BoldMT', 'Arial', sans-serif;font-weight:700;font-size:12.96px;fill:white;">40</text>
                <text x="312.251px" y="628.768px" style="font-family:'Arial-BoldMT', 'Arial', sans-serif;font-weight:700;font-size:12.96px;fill:white;">45</text>
            </g>
            <g transform="matrix(4.16667,0,0,4.16667,2527.3,29.3389)">
                <text x="372.54px" y="132.728px" style="font-family:'Arial-BoldMT', 'Arial', sans-serif;font-weight:700;font-size:12.96px;fill:white;">6</text>
                <text x="372.54px" y="175.248px" style="font-family:'Arial-BoldMT', 'Arial', sans-serif;font-weight:700;font-size:12.96px;fill:white;">6</text>
            </g>
            <g transform="matrix(4.16667,0,0,4.16667,2527.3,29.3389)">
                <text x="368.94px" y="231.938px" style="font-family:'Arial-BoldMT', 'Arial', sans-serif;font-weight:700;font-size:12.96px;fill:white;">12</text>
                <text x="368.94px" y="288.628px" style="font-family:'Arial-BoldMT', 'Arial', sans-serif;font-weight:700;font-size:12.96px;fill:white;">18</text>
                <text x="368.94px" y="345.318px" style="font-family:'Arial-BoldMT', 'Arial', sans-serif;font-weight:700;font-size:12.96px;fill:white;">24</text>
                <text x="368.94px" y="402.008px" style="font-family:'Arial-BoldMT', 'Arial', sans-serif;font-weight:700;font-size:12.96px;fill:white;">30</text>
                <text x="368.94px" y="458.698px" style="font-family:'Arial-BoldMT', 'Arial', sans-serif;font-weight:700;font-size:12.96px;fill:white;">36</text>
                <text x="368.94px" y="515.388px" style="font-family:'Arial-BoldMT', 'Arial', sans-serif;font-weight:700;font-size:12.96px;fill:white;">42</text>
                <text x="368.94px" y="572.078px" style="font-family:'Arial-BoldMT', 'Arial', sans-serif;font-weight:700;font-size:12.96px;fill:white;">48</text>
                <text x="368.94px" y="628.768px" style="font-family:'Arial-BoldMT', 'Arial', sans-serif;font-weight:700;font-size:12.96px;fill:white;">54</text>
            </g>
            <g transform="matrix(4.16667,0,0,4.16667,2527.3,29.3389)">
                <text x="429.233px" y="132.728px" style="font-family:'Arial-BoldMT', 'Arial', sans-serif;font-weight:700;font-size:12.96px;fill:white;">7</text>
                <text x="429.233px" y="175.248px" style="font-family:'Arial-BoldMT', 'Arial', sans-serif;font-weight:700;font-size:12.96px;fill:white;">7</text>
            </g>
            <g transform="matrix(4.16667,0,0,4.16667,2527.3,29.3389)">
                <text x="425.633px" y="231.938px" style="font-family:'Arial-BoldMT', 'Arial', sans-serif;font-weight:700;font-size:12.96px;fill:white;">14</text>
                <text x="425.633px" y="288.628px" style="font-family:'Arial-BoldMT', 'Arial', sans-serif;font-weight:700;font-size:12.96px;fill:white;">21</text>
                <text x="425.633px" y="345.318px" style="font-family:'Arial-BoldMT', 'Arial', sans-serif;font-weight:700;font-size:12.96px;fill:white;">28</text>
                <text x="425.633px" y="402.008px" style="font-family:'Arial-BoldMT', 'Arial', sans-serif;font-weight:700;font-size:12.96px;fill:white;">35</text>
                <text x="425.633px" y="458.698px" style="font-family:'Arial-BoldMT', 'Arial', sans-serif;font-weight:700;font-size:12.96px;fill:white;">42</text>
                <text x="425.633px" y="515.388px" style="font-family:'Arial-BoldMT', 'Arial', sans-serif;font-weight:700;font-size:12.96px;fill:white;">49</text>
                <text x="425.633px" y="572.078px" style="font-family:'Arial-BoldMT', 'Arial', sans-serif;font-weight:700;font-size:12.96px;fill:white;">56</text>
                <text x="425.633px" y="628.768px" style="font-family:'Arial-BoldMT', 'Arial', sans-serif;font-weight:700;font-size:12.96px;fill:white;">63</text>
            </g>
            <g transform="matrix(4.16667,0,0,4.16667,2527.3,29.3389)">
                <text x="485.921px" y="132.728px" style="font-family:'Arial-BoldMT', 'Arial', sans-serif;font-weight:700;font-size:12.96px;fill:white;">8</text>
                <text x="485.921px" y="175.248px" style="font-family:'Arial-BoldMT', 'Arial', sans-serif;font-weight:700;font-size:12.96px;fill:white;">8</text>
            </g>
            <g transform="matrix(4.16667,0,0,4.16667,2527.3,29.3389)">
                <text x="482.321px" y="231.938px" style="font-family:'Arial-BoldMT', 'Arial', sans-serif;font-weight:700;font-size:12.96px;fill:white;">16</text>
                <text x="482.321px" y="288.628px" style="font-family:'Arial-BoldMT', 'Arial', sans-serif;font-weight:700;font-size:12.96px;fill:white;">24</text>
                <text x="482.321px" y="345.318px" style="font-family:'Arial-BoldMT', 'Arial', sans-serif;font-weight:700;font-size:12.96px;fill:white;">32</text>
                <text x="482.321px" y="402.008px" style="font-family:'Arial-BoldMT', 'Arial', sans-serif;font-weight:700;font-size:12.96px;fill:white;">40</text>
                <text x="482.321px" y="458.698px" style="font-family:'Arial-BoldMT', 'Arial', sans-serif;font-weight:700;font-size:12.96px;fill:white;">48</text>
                <text x="482.321px" y="515.388px" style="font-family:'Arial-BoldMT', 'Arial', sans-serif;font-weight:700;font-size:12.96px;fill:white;">56</text>
                <text x="482.321px" y="572.078px" style="font-family:'Arial-BoldMT', 'Arial', sans-serif;font-weight:700;font-size:12.96px;fill:white;">64</text>
                <text x="482.321px" y="628.768px" style="font-family:'Arial-BoldMT', 'Arial', sans-serif;font-weight:700;font-size:12.96px;fill:white;">72</text>
            </g>
            <g transform="matrix(4.16667,0,0,4.16667,2527.3,29.3389)">
                <text x="542.614px" y="132.728px" style="font-family:'Arial-BoldMT', 'Arial', sans-serif;font-weight:700;font-size:12.96px;fill:white;">9</text>
                <text x="542.614px" y="175.248px" style="font-family:'Arial-BoldMT', 'Arial', sans-serif;font-weight:700;font-size:12.96px;fill:white;">9</text>
            </g>
            <g transform="matrix(4.16667,0,0,4.16667,2527.3,29.3389)">
                <text x="539.014px" y="231.938px" style="font-family:'Arial-BoldMT', 'Arial', sans-serif;font-weight:700;font-size:12.96px;fill:white;">18</text>
                <text x="539.014px" y="288.628px" style="font-family:'Arial-BoldMT', 'Arial', sans-serif;font-weight:700;font-size:12.96px;fill:white;">27</text>
                <text x="539.014px" y="345.318px" style="font-family:'Arial-BoldMT', 'Arial', sans-serif;font-weight:700;font-size:12.96px;fill:white;">36</text>
                <text x="539.014px" y="402.008px" style="font-family:'Arial-BoldMT', 'Arial', sans-serif;font-weight:700;font-size:12.96px;fill:white;">45</text>
                <text x="539.014px" y="458.698px" style="font-family:'Arial-BoldMT', 'Arial', sans-serif;font-weight:700;font-size:12.96px;fill:white;">54</text>
                <text x="539.014px" y="515.388px" style="font-family:'Arial-BoldMT', 'Arial', sans-serif;font-weight:700;font-size:12.96px;fill:white;">63</text>
                <text x="539.014px" y="572.078px" style="font-family:'Arial-BoldMT', 'Arial', sans-serif;font-weight:700;font-size:12.96px;fill:white;">72</text>
                <text x="539.014px" y="628.768px" style="font-family:'Arial-BoldMT', 'Arial', sans-serif;font-weight:700;font-size:12.96px;fill:white;">81</text>
            </g>
            <g>
                <g transform="matrix(1,0,0,1,2677.17,480)">
                    <path d="M117.954,2244L117.954,0" style="fill:none;stroke:white;stroke-width:8.33px;"/>
                </g>
                <g transform="matrix(1,0,0,1,2905.33,480)">
                    <path d="M117.954,2244L117.954,0" style="fill:none;stroke:white;stroke-width:8.33px;"/>
                </g>
                <g transform="matrix(1,0,0,1,3149.79,480)">
                    <path d="M117.954,2244L117.954,0" style="fill:none;stroke:white;stroke-width:8.33px;"/>
                </g>
                <g transform="matrix(1,0,0,1,3390.17,480)">
                    <path d="M117.954,2244L117.954,0" style="fill:none;stroke:white;stroke-width:8.33px;"/>
                </g>
                <g transform="matrix(1,0,0,1,3618.33,480)">
                    <path d="M117.954,2244L117.954,0" style="fill:none;stroke:white;stroke-width:8.33px;"/>
                </g>
                <g transform="matrix(1,0,0,1,3858.71,480)">
                    <path d="M117.954,2244L117.954,0" style="fill:none;stroke:white;stroke-width:8.33px;"/>
                </g>
                <g transform="matrix(1,0,0,1,4090.95,480)">
                    <path d="M117.954,2244L117.954,0" style="fill:none;stroke:white;stroke-width:8.33px;"/>
                </g>
                <g transform="matrix(1,0,0,1,4339.48,480)">
                    <path d="M117.954,2244L117.954,0" style="fill:none;stroke:white;stroke-width:8.33px;"/>
                </g>
                <g transform="matrix(1,0,0,1,4583.93,467.777)">
                    <path d="M117.954,2244L117.954,0" style="fill:none;stroke:white;stroke-width:8.33px;"/>
                </g>
            </g>
            <g transform="matrix(5.55112e-17,-1,1,5.55112e-17,2209.39,5317.52)">
                <g transform="matrix(1,0,0,1,2677.17,480)">
                    <path d="M117.954,2244L117.954,0" style="fill:none;stroke:white;stroke-width:8.33px;"/>
                </g>
                <g transform="matrix(1,0,0,1,2905.33,480)">
                    <path d="M117.954,2244L117.954,0" style="fill:none;stroke:white;stroke-width:8.33px;"/>
                </g>
                <g transform="matrix(1,0,0,1,3149.79,480)">
                    <path d="M117.954,2244L117.954,0" style="fill:none;stroke:white;stroke-width:8.33px;"/>
                </g>
                <g transform="matrix(1,0,0,1,3390.17,480)">
                    <path d="M117.954,2244L117.954,0" style="fill:none;stroke:white;stroke-width:8.33px;"/>
                </g>
                <g transform="matrix(1,0,0,1,3618.33,480)">
                    <path d="M117.954,2244L117.954,0" style="fill:none;stroke:white;stroke-width:8.33px;"/>
                </g>
                <g transform="matrix(1,0,0,1,3858.71,480)">
                    <path d="M117.954,2244L117.954,0" style="fill:none;stroke:white;stroke-width:8.33px;"/>
                </g>
                <g transform="matrix(1,0,0,1,4090.95,480)">
                    <path d="M117.954,2244L117.954,0" style="fill:none;stroke:white;stroke-width:8.33px;"/>
                </g>
                <g transform="matrix(1,0,0,1,4339.48,480)">
                    <path d="M117.954,2244L117.954,0" style="fill:none;stroke:white;stroke-width:8.33px;"/>
                </g>
                <g transform="matrix(1,0,0,1,4583.93,467.777)">
                    <path d="M117.954,2244L117.954,0" style="fill:none;stroke:white;stroke-width:8.33px;"/>
                </g>
            </g>
        </g>
    </g>
</svg>
